<svg xmlns="http://www.w3.org/2000/svg" viewBox="0 0 24 24"><rect width="24" height="24" fill="none"/><path d="M2.523,21.331C.872,20.617,0,19.6,0,18.385a8.071,8.071,0,0,1,16.142,0c0,1.213-.872,2.232-2.522,2.946a14.43,14.43,0,0,1-5.549.983A14.422,14.422,0,0,1,2.523,21.331ZM2,18.385c0,.6.656,1.1,1.9,1.446a16.061,16.061,0,0,0,4.174.482c2.923,0,6.071-.6,6.071-1.929A6.071,6.071,0,1,0,2,18.385ZM3.071,5a5,5,0,1,1,5,5A5.006,5.006,0,0,1,3.071,5Zm2,0a3,3,0,1,0,3-3A3,3,0,0,0,5.071,5Z" transform="translate(3.929 1)"/></svg>